/* XPM */
static char *_dfbd9ba217447bf9cec7eb73e2bc4e9[] = {
/* columns rows colors chars-per-pixel */
"32 32 112 2 ",
"   c black",
".  c #1D1410",
"X  c #241D1B",
"o  c #2E2927",
"O  c #3D3938",
"+  c #484645",
"@  c #424847",
"#  c #4B4847",
"$  c #4E4B4A",
"%  c #4F4E4E",
"&  c #574F4E",
"*  c #535352",
"=  c #555554",
"-  c #5B5958",
";  c #5E5C5B",
":  c #5A5E5D",
">  c #5F5F5F",
",  c #596767",
"<  c #676565",
"1  c #686262",
"2  c #686766",
"3  c #6A6867",
"4  c #6A6A6B",
"5  c #6D6C6B",
"6  c #6E7170",
"7  c #697776",
"8  c #767574",
"9  c #747776",
"0  c #7B7979",
"q  c gray48",
"w  c #7D7C7B",
"e  c gray49",
"r  c #807F7F",
"t  c #D75E5B",
"y  c #DA615F",
"u  c #8B8A8A",
"i  c #8D8C8B",
"p  c #8D8D8D",
"a  c #928F8F",
"s  c #949393",
"d  c #959595",
"f  c #989797",
"g  c #999897",
"h  c #939E9D",
"j  c #9C9B9B",
"k  c #9F9E9E",
"l  c #9BA5A5",
"z  c #A1A0A0",
"x  c #A4A2A2",
"c  c #A5A4A4",
"v  c #AAA9A9",
"b  c #AEAEAE",
"n  c gray69",
"m  c #B2B1B1",
"M  c #B5B4B4",
"N  c #B8B7B7",
"B  c #B9B9B9",
"V  c #BBBBBB",
"C  c #BCBDBE",
"Z  c gray",
"A  c #E29B98",
"S  c #E29C98",
"D  c #E39E99",
"F  c #E3A29E",
"G  c #EBAAA8",
"H  c #ECABA9",
"J  c #EBAEAA",
"K  c #BFBFC0",
"L  c #C3C3C3",
"P  c #C5C5C4",
"I  c #C6C7C7",
"U  c #C9C7C7",
"Y  c #C6CECE",
"T  c #C8C9C9",
"R  c #CAC8C8",
"E  c #CBCBCA",
"W  c #CCCBCB",
"Q  c #CCCCCD",
"!  c #D1D1D2",
"~  c #D4D3D3",
"^  c #D3D4D4",
"/  c gray83",
"(  c #D7D8D8",
")  c #D8D8D8",
"_  c gray85",
"`  c #DEDEDF",
"'  c #DFDFDF",
"]  c #E8C1C0",
"[  c gray88",
"{  c #E0E0E1",
"}  c gray89",
"|  c #E4E4E4",
" . c #E8E7E7",
".. c #EAEAEA",
"X. c gray92",
"o. c gray93",
"O. c #F7EAE9",
"+. c #F8ECEB",
"@. c #FAEFED",
"#. c #FFEDEC",
"$. c #F2F3F3",
"%. c #F3F4F4",
"&. c #F4F4F4",
"*. c #F5F4F4",
"=. c #FAF3F3",
"-. c #FDF6F6",
";. c #F6FCFC",
":. c #FBFBFB",
">. c gray99",
",. c #FDFCFC",
"<. c #FEFCFC",
"1. c white",
/* pixels */
"1.1.1.1.1.1.1.1.1.1.1.1.1.1.1.1.1.1.1.1.1.1.1.1.1.1.1.1.1.1.1.1.",
"1.1.1.1.1.1.1.1.1.1.1.1.1.1.1.1.1.1.1.1.1.1.1.1.1.1.1.1.1.1.1.1.",
"1.1.1.1.1.1.1.1.1.1.1.1.1.1.1.1.1.1.1.1.1.1.1.1.1.1.1.1.1.1.1.1.",
"1.1.1.1.1.1.1.1.1.1.1.1.1.1.1.1.1.1.1.1.1.1.1.1.1.1.1.1.1.1.1.1.",
"1.1.1.1.1.1.1.1.1.1.1.1.1.1.1.1.1.1.1.1.1.1.1.1.1.1.1.1.1.1.1.1.",
"1.1.1.1.1.1.1.1.1.1.1.1.1.1.1.1.1.1.>.1.1.1.1.1.1.1.1.1.1.1.1.1.",
"1.1.1.1.1.1.1.1.1.1.1.1.1.1.1.1.:.1.1.1.1.1.1.1.1.1.1.1.1.1.1.1.",
"1.1.1.1.1.1.1.1.1.1.1.1.:.%.:.! ! ^ L 1.1.1.1.1.1.1.1.1.1.1.1.1.",
"1.1.1.1.1.1.1.1.1.1.1.&.T Q _ C X.u   [ 1.>.1.1.1.1.1.1.1.1.1.1.",
"1.1.1.1.1.1.1.1.1.1.1._ I o.%.` 1.~   v 1.1.1.1.1.1.1.1.1.1.1.1.",
"1.1.1.1.1.1.1.1.1.1.1.o.| :.^ Q ` v M m X _ 1.>.1.1.1.1.1.1.1.1.",
"1.1.1.1.1.1.1.1.1.1.$.I Q ( K o.V   _ X.  q 1.1.1.1.1.1.1.1.1.1.",
"1.1.1.1.1.1.1.1.1.1.[ Q %.%.! %.`   k $.5 w 1.1.1.1.1.1.1.1.1.1.",
"1.1.1.1.1.1.1.1.1.1.$.L [ X.q q b m T O x :.1.1.1.1.1.1.1.1.1.1.",
"1.1.1.1.1.1.1.1.1.1.X.e > v Q s p 1.1.  + 1.1.1.1.1.1.1.1.1.1.1.",
"1.1.1.1.1.1.1.1.1.1.1.o.V M 1.1.V v _ j < >.1.1.1.1.1.1.1.1.1.1.",
"1.1.1.1.1.1.1.1.1.1.1.1.1.m r I b 4 > I :.1.1.1.1.1.1.1.1.1.1.1.",
"1.1.1.1.1.1.1.1.1.>.1.:.1._ p 5 ` } I X.1.1.1.1.1.1.1.1.1.1.1.1.",
"1.1.1.1.1.1.1.1.1.1.1.1.1.1.:.o.1.1.1.1.1.1.1.1.1.1.:.1.1.1.1.1.",
"1.:.1.$.` } ' X.1.$.$.1.1.:.$.&.} } } 1.1.O.@.1.:.1.1.[ $.1.1.1.",
"1.1.1.I + 3 2 o T V s 1.1.X.2 Z : 9 % 1 ;.D D 1.1.o.q s *.1.>.1.",
"1.1.1.1.1.1.1.` 2 n f 1.1. .= &.=.=.1.a l H F 1.U ; U 1.1.1.1.1.",
"1.1.1.! i g z 8 M M f 1.1.X., ] y t #.o.7 A J Y   ` 1.:.>.1.1.1.",
"1.1.1.` M K d   &.) . $.1.z q 1.-.-.1.x h G F 1.U - I 1.1.1.1.1.",
"1.1.:.1.1.1.1.r M 1.c $ < > &.T @ 6 * & ;.D A 1.1.o.q s &.1.1.1.",
"1.1.1.1.,.:.1.o.X.1.1.$.| 1.1.X.) _ ` ,.1.O.+.1.1.1.1.` $.1.1.1.",
"1.1.1.1.1.1.1.1.1.,.1.1.1.1.1.1.1.1.1.1.,.1.1.,.1.1.1.1.1.1.1.1.",
"1.1.1.1.1.1.1.1.1.1.1.1.1.1.1.1.,.1.,.1.1.1.1.1.1.1.1.1.1.1.1.1.",
"1.1.1.1.1.1.1.1.1.1.1.1.1.1.1.1.1.1.1.1.1.1.1.1.1.1.1.1.1.1.1.1.",
"1.1.1.1.1.1.1.1.1.1.1.1.1.1.1.1.1.1.1.1.1.1.1.1.1.1.1.1.1.1.1.1.",
"1.1.1.1.1.1.1.1.1.1.1.1.1.1.1.1.1.1.1.1.1.1.1.1.1.1.1.1.1.1.1.1.",
"1.1.1.1.1.1.1.1.1.1.1.1.1.1.1.1.1.1.1.1.1.1.1.1.1.1.1.1.1.1.1.1."
};
