/* XPM */
static char *fded4e2c9cbe4f6baad42cbaecab7b5f[] = {
/* columns rows colors chars-per-pixel */
"64 64 85 1 ",
"  c #000000",
". c #0A0000",
"X c #160600",
"o c #190000",
"O c #1F1612",
"+ c #201815",
"@ c #241D1A",
"# c #2A2422",
"$ c #2D2826",
"% c #2F2A28",
"& c #322D2C",
"* c #363231",
"= c #3A3635",
"- c #3D3937",
"; c #3E3A39",
": c #413E3C",
"> c #43403F",
", c #494645",
"< c #4B4847",
"1 c #4E4B4A",
"2 c #514E4D",
"3 c #555352",
"4 c #5F5D5D",
"5 c #605E5E",
"6 c #616363",
"7 c #6A6767",
"8 c #6D6C6C",
"9 c #706E6E",
"0 c #71706F",
"q c #747474",
"w c #7C7B7C",
"e c #CF0000",
"r c #D10000",
"t c #D30C00",
"y c #D31300",
"u c #D3280A",
"i c #D42F1B",
"p c #D4311D",
"a c #D53C2F",
"s c #D53F3C",
"d c #807F7F",
"f c #D64D4A",
"g c #D75350",
"h c #DA6765",
"j c #DB6A68",
"k c #838383",
"l c #8D8C8C",
"z c #908F8F",
"x c #939292",
"c c #949A9A",
"v c #9B9B9B",
"b c #A5A5A4",
"n c #A8A7A7",
"m c #ABABAB",
"M c #B0AFAF",
"N c #B3B3B3",
"B c #BCBCBC",
"V c #C0BFBF",
"C c #EAB9B6",
"Z c #ECC2BE",
"A c #BFBFC0",
"S c #C4C4C5",
"D c #C7C7C8",
"F c #C7C8C9",
"G c #CBCCCC",
"H c #CFCFD0",
"J c #D3D3D3",
"K c #D7D7D8",
"L c #D7D8D8",
"P c #DBDBDB",
"I c #EFCAC3",
"U c #F5E1DF",
"Y c #E3E3E3",
"T c #E7E9EA",
"R c #EBEBEB",
"E c #F5E2E1",
"W c #FAE7E6",
"Q c #F7E9E5",
"! c #F9E9E7",
"~ c #FDECEA",
"^ c #F0F0EF",
"/ c #F4F4F4",
"( c #FBF6F6",
") c #F7F8F7",
"_ c #FFFFFF",
/* pixels */
"________________________________________________________________",
"________________________________________________________________",
"________________________________________________________________",
"________________________________________________________________",
"________________________________________________________________",
"________________________________________________________________",
"________________________________________________________________",
"________________________________________________________________",
"________________________________________________________________",
"________________________________________________________________",
"________________________________________________________________",
"________________________________________________________________",
"________________________________________________________________",
"________________________________/_______________________________",
"______________________________RHSJ_/Y___________________________",
"_________________________^Y^_TSFSHR1 N__________________________",
"________________________LFSH/FFGSRS ; J_________________________",
"_______________________KSGDLYADSJ_G - q_)_______________________",
"______________________RSGFS^)HJR__R.$O&R________________________",
"______________________YASDR__)T^___v ; RR)______________________",
"______________________)YY___YGDA)_KRl lD 1Y_____________________",
"_______________________RLY_YSFGS)v 4RP)z  1)____________________",
"_____________________)JSSFRFFGSL),% l__l : S____________________",
"_____________________JSGDKTSDSH_)<.#@R_N : z____________________",
"____________________/SGDS/)JKR___q * P__-  k____________________",
"____________________/SSJ/___KHGY_D > TTSH* V____________________",
"_____________________)R/___G0wwdbRc 9R< lRP_____________________",
"_____________________YvzxB)JqxllwlRP)Y , S______________________",
"_____________________G8lkwlYBqkkl7S__P * q______________________",
"_____________________)cwlzkv_Knzzn/__R.$.1)_____________________",
"______________________/Nkwqc)__)TGGGR_v @2)_____________________",
"________________________^JJY^)__nqwwwBRq N______________________",
"__________________________KllvD)mwxzzqm)P_______________________",
"__________________________mqzkqvYvqkkz8T________________________",
"__________________________RldlxwB_DvzzN)________________________",
"___________________________Rnkw0N___))__________________________",
"_____________________________RJK)_)_____________________________",
"___________)__________________________)________________)________",
"________________________________________________________________",
"______)KJJJJHGJR___PP)_____/PY)KJKKLLY)___(II(________PKK)______",
"______)         m_)= P_____P 3^       3G__UeeQ______Rw $G_______",
"______)vlxzzlxl@ G_2 Y_____P 7/vllllk;  B_Eya~_____B  v)________",
"_______________S l_1 Y_____P 5)______/b.o/Wri!___Yw :J__________",
"_______________P k)3 Y_)_)_P 6)_((()___k D~epQ__B  x/___________",
"_______YYYPYPYP0 n_1 Y___)_P 6(jsfgtC__D v~eu~T7 =J_____________",
"______)X        4))3 P_____J q(hsfgtC__H c~eu~T7 &G_____________",
"______)k8q083 +2/__k m_____v v_))(()___b A~epQ__B  l^___________",
"____________)B  G__D $G___B  K________VX R!epQ___Rk =G__________",
"______________N k___l  kx8  n_)vlxzzx8  m_Eya!_____B  v)________",
"______________Y #)___M>   3B__)       #N__UerQ______Rw $G_______",
"______________/BS)____/PPY)___)SBVBSBG^___(CZ(________PJJ)______",
"_______________________________________)________________________",
"__________________________________)_____________________________",
"________________________________________________________________",
"________________________________________________________________",
"________________________________________________________________",
"________________________________________________________________",
"________________________________________________________________",
"________________________________________________________________",
"________________________________________________________________",
"________________________________________________________________",
"________________________________________________________________",
"________________________________________________________________",
"________________________________________________________________"
};
