/* XPM */
static char *_3bf312937964afa8a0f9bf940b4cdf6[] = {
/* columns rows colors chars-per-pixel */
"16 16 52 1 ",
"  c #858484",
". c #969695",
"X c #9C9C9B",
"o c #B88785",
"O c #9BA4A5",
"+ c #A0A0A0",
"@ c #A2A1A1",
"# c #A8A8A7",
"$ c gray67",
"% c #AFAEAE",
"& c #B0AFAF",
"* c #B9ACAC",
"= c #B2B2B2",
"- c #B2B7B7",
"; c #B7BCBC",
": c #BEBDBD",
"> c #BDBDBE",
", c #D4B0AF",
"< c #CEBEBE",
"1 c #C4C3C3",
"2 c #C1C6C6",
"3 c gray78",
"4 c #CACACA",
"5 c #CCCBCB",
"6 c #D2D2D2",
"7 c #D6D6D7",
"8 c #D2D8D9",
"9 c #D8D8D8",
"0 c gray87",
"q c #DFDFDF",
"w c #E9C7C5",
"e c #F8D2D1",
"r c #F4D8D6",
"t c #F0DDDD",
"y c #E2E2E3",
"u c #E5E4E4",
"i c #E6E6E6",
"p c #E7E7E7",
"a c #EAEAEA",
"s c #EAEBEB",
"d c #ECEBEB",
"f c #EFEDED",
"g c #FCECEB",
"h c gray94",
"j c #F3F3F3",
"k c #F6F7F7",
"l c #F7F8F8",
"z c #F9F9F8",
"x c gray98",
"c c #FEFAFA",
"v c gray99",
"b c white",
/* pixels */
"bbbbbbbbbbbbbbbb",
"bbbbbbbbxbbbbbbb",
"bbbbbbbbbbbbbbbb",
"bbbbbbxjyjbbbbbb",
"bbbxbj7y3 bbbbbb",
"bbbbbaqa%%.bbbbb",
"bbbbb79>#%$bbbbb",
"bbbbbq$33+1bxbbb",
"bbbbbbi=14bbbbbb",
"bzidxxbpakbcbdxb",
"bh1>Xuk&<-,r85bb",
"bj3+&59*e6owOdbb",
"bbbqa62a;2tgc4xb",
"bbxbbbbbbbbbbbbb",
"bbbbbbxbvbbbbbbb",
"bbbbbbbbbbbbbbbb"
};
